Coordinates
version=1
nRows=16
nColumns=36
inDegrees=yes

Units are S.I. units (second, meters, Newtons, ...)
If the header above contains a line with 'inDegrees', this indicates whether rotational values are in degrees (yes) or radians (no).

endheader
time	pelvis_tilt	pelvis_list	pelvis_rotation	pelvis_tx	pelvis_ty	pelvis_tz	hip_flexion_r	hip_adduction_r	hip_rotation_r	knee_angle_r	knee_angle_r_beta	ankle_angle_r	subtalar_angle_r	mtp_angle_r	hip_flexion_l	hip_adduction_l	hip_rotation_l	knee_angle_l	knee_angle_l_beta	ankle_angle_l	subtalar_angle_l	mtp_angle_l	lumbar_extension	lumbar_bending	lumbar_rotation	arm_flex_r	arm_add_r	arm_rot_r	elbow_flex_r	pro_sup_r	arm_flex_l	arm_add_l	arm_rot_l	elbow_flex_l	pro_sup_l
      0.00000000	      4.26278021	     -1.91870596	      3.51726017	      1.70614047	      0.96028489	      0.01748738	      8.25175324	      0.31140128	      6.95197277	     34.37632085	      0.59997998	      4.30315062	    -18.91610918	     -7.03490075	     -1.77414115	      4.04964646	      2.18481229	     13.06207415	      0.22797620	     12.64904661	     -3.31621342	     -7.03490075	     -8.64083348	      1.92965745	      2.09189301	     38.87341732	     13.19114889	     56.60340987	    112.03680322	     89.41730440	     28.33040641	      0.06493140	     62.35853759	    127.09517038	     94.96770858
      0.01666670	      3.72388348	     -2.02118370	      4.07974555	      1.71096931	      0.95605147	      0.01397759	      7.92949448	     -0.00040234	      5.65403086	     32.38945866	      0.56530270	      8.16262703	    -16.35981116	     -7.09419143	     -1.41165923	      4.22278791	      3.66332799	     14.02334864	      0.24475361	     13.86988821	     -3.64513361	     -7.09419143	     -8.61786021	      1.45886767	      3.02626853	     40.63532421	      9.39429725	     63.61374893	    120.21423958	    101.46301872	     29.23333948	      0.19420217	     61.45434329	    129.95103936	    105.46621854
      0.03333330	      3.17962850	     -1.70243994	      4.43382788	      1.70701317	      0.95254100	      0.01642534	      8.62618751	     -0.46033624	      5.55078100	     31.96524005	      0.55789869	     10.25613026	    -16.37296508	     -7.09932524	     -0.77503574	      4.82063572	      5.01523758	     14.46133724	      0.25239795	     15.03737362	     -3.81188072	     -7.09932524	     -8.36304518	      0.36189185	      1.98854238	     40.04656825	     11.10529995	     62.41654577	    120.71617198	    101.94940067	     29.49555742	     -0.76533465	     62.23522729	    129.95705698	    106.25424309
      0.05000000	      2.67387982	     -1.76658557	      4.44392821	      1.71220610	      0.94690025	      0.01324378	      9.15172038	     -0.53819901	      5.39508725	     32.05743141	      0.55950773	     11.37773836	    -15.84323855	     -7.14747260	     -0.25632493	      5.06130023	      4.83308264	     15.03325330	      0.26237977	     15.63414248	     -3.99965804	     -7.14747260	     -7.38626652	      0.07353817	      2.01689093	     39.47924783	     11.74079740	     61.19875534	    120.78108425	    105.30686933	     30.06488463	     -0.30881941	     62.33599025	    129.51534796	    109.37931488
      0.06666670	      2.27596989	     -1.84529204	      4.22072780	      1.71265590	      0.94730788	      0.01319889	      9.59779312	     -0.40654804	      5.73958184	     32.28912998	      0.56355163	     11.59953841	    -16.07843557	     -7.18632392	      0.32132868	      5.21289052	      4.45855505	     15.89027582	      0.27733763	     16.22398288	     -3.84181769	     -7.18632392	     -6.74726341	     -0.17314186	      2.29626742	     38.90914754	     11.77635599	     61.10570125	    120.98997714	    103.80185672	     30.34088827	      0.40252867	     62.53143064	    128.86471775	    107.29582859
      0.08333330	      1.63498944	     -1.97742263	      3.80451275	      1.71359511	      0.94083304	      0.01356799	     10.34873036	     -0.19408075	      6.22489390	     32.77102574	      0.57196230	     11.81874356	    -16.69886979	     -7.21551339	      1.25738667	      5.26350647	      3.96355503	     16.80685677	      0.29333499	     16.80458756	     -3.44595273	     -7.21551339	     -5.74882446	     -0.35519401	      2.92398057	     38.44934718	     11.82526223	     60.50660604	    121.42040315	    104.79622634	     30.96983262	      1.26767193	     62.61006880	    128.05251526	    107.53062399
      0.10000000	      1.03156352	     -2.15707268	      3.43982590	      1.71441872	      0.94107769	      0.01370975	     10.78652294	      0.11232490	      6.58673530	     33.00206947	      0.57599477	     12.09676121	    -17.24347350	     -7.25457183	      2.15439481	      5.21187354	      3.63925174	     17.63583924	      0.30780346	     17.19509830	     -3.20452890	     -7.25457183	     -4.90113864	     -0.39266850	      3.24736421	     38.09952376	     11.79265416	     60.46351321	    121.86631821	    104.20913215	     31.07740514	      1.56626829	     62.49319197	    127.47776620	    106.91134100
      0.11666670	      0.40770548	     -2.34932456	      3.09115601	      1.71527119	      0.93423823	      0.01417427	     11.06766127	      0.46039156	      6.99373940	     33.09067615	      0.57754125	     12.27669399	    -17.97296298	     -7.27386493	      3.04684299	      5.10749499	      3.37823204	     18.33850347	      0.32006727	     17.51482751	     -3.07868484	     -7.27386493	     -3.93413582	     -0.33465864	      3.74585687	     37.86434795	     11.75031905	     60.11049132	    122.24033769	    102.77182844	     31.41824456	      2.13967405	     62.67022972	    127.10807443	    104.88345141
      0.13333330	     -0.19171490	     -2.47790736	      2.73166542	      1.71605400	      0.93371499	      0.01441549	     11.35870733	      0.68112857	      7.21543938	     33.17401270	      0.57899575	     12.58500046	    -18.26007415	     -7.29452079	      3.91347059	      5.00993924	      3.01055789	     19.00094886	      0.33162912	     17.89157609	     -2.76269228	     -7.29452079	     -3.13998615	     -0.35825978	      4.23497724	     37.69797590	     11.65494398	     59.96151491	    122.76914447	    103.26552127	     31.60557376	      2.55010354	     62.93955461	    126.90509723	    105.29714480
      0.15000000	     -0.63832663	     -2.57853418	      2.57730835	      1.71694901	      0.93384457	      0.01433924	     11.27016462	      0.85634601	      7.30405487	     32.90518337	      0.57430379	     12.88664066	    -18.31754427	     -7.31177490	      4.57636025	      4.93722769	      3.01076998	     19.54095823	      0.34105406	     18.00781895	     -2.85471516	     -7.31177490	     -2.54221292	     -0.33840382	      4.44264635	     37.52468698	     11.58164562	     59.97254916	    123.09202222	    101.43121865	     31.44115876	      2.69495118	     63.19461491	    126.91700235	    103.17089109
      0.16666670	     -0.96207866	     -2.56486266	      2.43502377	      1.72114666	      0.93420876	      0.01212428	     10.91155378	      0.87857302	      7.40855427	     32.50687808	      0.56735205	     13.29225838	    -18.25852045	     -7.31796597	      4.99494824	      4.96312467	      3.03965941	     19.93270513	      0.34789133	     18.00278910	     -2.86155364	     -7.31796597	     -2.00499863	     -0.42141077	      4.53062668	     37.25314384	     11.46314602	     59.99106947	    122.92909032	    100.72859204	     31.27515372	      2.86199260	     63.30370428	    126.82833276	    102.39225077
      0.18333330	     -1.11464414	     -2.60823362	      2.33457943	      1.72166566	      0.93462227	      0.01207147	     10.33831325	      0.93804038	      7.48544892	     32.12318962	      0.56065543	     13.28479067	    -18.35298212	     -7.34975629	      5.31105506	      4.88867199	      3.09037742	     20.40690711	      0.35616772	     17.93369376	     -2.84563712	     -7.34975629	     -1.81402832	     -0.52488167	      5.03523261	     36.59096011	     11.13865712	     59.55238783	    123.53713443	    102.40813361	     31.25252421	      3.24073501	     63.81767501	    126.66101765	    103.56863148
      0.20000000	     -1.19063238	     -2.54397532	      2.31746641	      1.72171707	      0.93488251	      0.01123365	      9.73751093	      0.90293361	      7.48239552	     31.94636429	      0.55756924	     13.39494891	    -18.33141053	     -7.35095706	      5.53932656	      4.93896661	      3.20199760	     20.81380433	      0.36326942	     17.89873613	     -2.88847541	     -7.35095706	     -1.71801772	     -0.65712343	      4.97883381	     36.38518114	     11.34195076	     59.29434062	    123.37594405	    102.40289039	     31.11480300	      3.33530118	     63.99620659	    126.66661173	    103.57249180
      0.21666670	     -1.28577773	     -2.47978837	      2.26306247	      1.71818544	      0.94011150	      0.01375700	      9.38237689	      0.89073020	      7.48910155	     31.90628900	      0.55686980	     13.37670615	    -18.28600628	     -7.35118517	      5.76217911	      4.96900626	      3.36180683	     21.01551513	      0.36678993	     17.87822602	     -2.85762554	     -7.35118517	     -1.87170926	     -0.96271540	      5.11407991	     36.24251897	     11.27421884	     59.30474556	    123.21131599	    102.40221260	     30.98720239	      3.12392200	     64.05858442	    126.61113741	    103.57227017
      0.23333330	     -1.07409611	     -2.35302878	      2.40767106	      1.72184550	      0.94042527	      0.01125749	      8.59770127	      0.74492823	      7.25311486	     31.75654987	      0.55425635	     13.39023414	    -18.12341311	     -7.35920605	      5.68000406	      5.09825646	      3.65473013	     21.32714665	      0.37222893	     17.85333835	     -2.99142624	     -7.35920605	     -2.18104335	     -1.13646906	      5.10152319	     35.63999002	     11.20882266	     58.88791177	    122.77666097	    101.56501688	     31.15216858	      2.75372339	     64.86206517	    126.57233051	    102.55418859
      0.25000000	     -1.39535501	     -2.24956558	      2.35033094	      1.72200061	      0.93811060	      0.01176787	      8.55620959	      0.65430599	      7.11951407	     31.78895314	      0.55482190	     13.60294114	    -17.98808390	     -7.36463964	      6.13552404	      5.19673043	      3.82245452	     21.58201150	      0.37667716	     17.89043263	     -2.97182382	     -7.36463964	     -1.60507326	     -1.33168332	      5.12979565	     35.49116555	     11.36265779	     58.74721601	    122.47074376	    100.61800900	     31.05636903	      2.95827530	     64.82536508	    126.44686017	    101.54392194
